<?xml version="1.0" encoding="UTF-8"?>
<svg id="Layer_1" data-name="Layer 1" xmlns="http://www.w3.org/2000/svg" viewBox="0 0 149.93 157.22">
  <defs>
    <style>
      .cls-1 {
        stroke-width: 0px;
      }
    </style>
  </defs>
  <path class="cls-1" d="M122.13,81.85c0,1.66-.04,3.33.02,4.99.03.73-.19,1.08-1.47,1.07-5.15-.04-10.31-.03-15.46,0-.97,0-1.32-.2-1.32-.86.04-3.48.04-6.95,0-10.43,0-.69.43-.84,1.36-.84,5.15.02,10.31.02,15.46,0,1.07,0,1.46.21,1.43.94-.06,1.71-.02,3.43-.02,5.14Z"/>
  <path class="cls-1" d="M84.07,81.85c0,1.66-.04,3.33.02,4.99.03.73-.19,1.08-1.47,1.07-5.15-.04-10.31-.03-15.46,0-.97,0-1.32-.2-1.32-.86.04-3.48.04-6.95,0-10.43,0-.69.43-.84,1.36-.84,5.15.02,10.31.02,15.46,0,1.07,0,1.46.21,1.43.94-.06,1.71-.02,3.43-.02,5.14Z"/>
  <path class="cls-1" d="M46.02,81.85c0,1.66-.04,3.33.02,4.99.03.73-.19,1.08-1.47,1.07-5.15-.04-10.31-.03-15.46,0-.97,0-1.32-.2-1.32-.86.04-3.48.04-6.95,0-10.43,0-.69.43-.84,1.36-.84,5.15.02,10.31.02,15.46,0,1.07,0,1.46.21,1.43.94-.06,1.71-.02,3.43-.02,5.14Z"/>
  <path class="cls-1" d="M122.13,105.8c0,1.66-.04,3.33.02,4.99.03.73-.19,1.08-1.47,1.07-5.15-.04-10.31-.03-15.46,0-.97,0-1.32-.2-1.32-.86.04-3.48.04-6.95,0-10.43,0-.69.43-.84,1.36-.84,5.15.02,10.31.02,15.46,0,1.07,0,1.46.21,1.43.94-.06,1.71-.02,3.43-.02,5.14Z"/>
  <path class="cls-1" d="M84.07,105.8c0,1.66-.04,3.33.02,4.99.03.73-.19,1.08-1.47,1.07-5.15-.04-10.31-.03-15.46,0-.97,0-1.32-.2-1.32-.86.04-3.48.04-6.95,0-10.43,0-.69.43-.84,1.36-.84,5.15.02,10.31.02,15.46,0,1.07,0,1.46.21,1.43.94-.06,1.71-.02,3.43-.02,5.14Z"/>
  <path class="cls-1" d="M46.02,105.8c0,1.66-.04,3.33.02,4.99.03.73-.19,1.08-1.47,1.07-5.15-.04-10.31-.03-15.46,0-.97,0-1.32-.2-1.32-.86.04-3.48.04-6.95,0-10.43,0-.69.43-.84,1.36-.84,5.15.02,10.31.02,15.46,0,1.07,0,1.46.21,1.43.94-.06,1.71-.02,3.43-.02,5.14Z"/>
  <path class="cls-1" d="M122.13,129.74c0,1.66-.04,3.33.02,4.99.03.73-.19,1.08-1.47,1.07-5.15-.04-10.31-.03-15.46,0-.97,0-1.32-.2-1.32-.86.04-3.48.04-6.95,0-10.43,0-.69.43-.84,1.36-.84,5.15.02,10.31.02,15.46,0,1.07,0,1.46.21,1.43.94-.06,1.71-.02,3.43-.02,5.14Z"/>
  <path class="cls-1" d="M84.07,129.74c0,1.66-.04,3.33.02,4.99.03.73-.19,1.08-1.47,1.07-5.15-.04-10.31-.03-15.46,0-.97,0-1.32-.2-1.32-.86.04-3.48.04-6.95,0-10.43,0-.69.43-.84,1.36-.84,5.15.02,10.31.02,15.46,0,1.07,0,1.46.21,1.43.94-.06,1.71-.02,3.43-.02,5.14Z"/>
  <path class="cls-1" d="M46.02,129.74c0,1.66-.04,3.33.02,4.99.03.73-.19,1.08-1.47,1.07-5.15-.04-10.31-.03-15.46,0-.97,0-1.32-.2-1.32-.86.04-3.48.04-6.95,0-10.43,0-.69.43-.84,1.36-.84,5.15.02,10.31.02,15.46,0,1.07,0,1.46.21,1.43.94-.06,1.71-.02,3.43-.02,5.14Z"/>
  <path class="cls-1" d="M139.65,18.58h-22.46v21.51h-8.31c-1.84,0-3.33-1.47-3.33-3.31v-18.2H34.6v18.2c0,1.84-1.47,3.31-3.31,3.31h-5.01c-1.84,0-3.31-1.47-3.31-3.31v-18.2h-12.67c-5.69,0-10.31,4.62-10.31,10.29v118.04c0,5.69,4.62,10.31,10.31,10.31h129.34c5.67,0,10.29-4.62,10.29-10.31V28.87c0-5.67-4.62-10.29-10.29-10.29ZM139.65,148.82H10.31c-1.06,0-1.91-.85-1.91-1.91V59h133.13v87.92c0,1.06-.85,1.91-1.88,1.91Z"/>
  <path class="cls-1" d="M32.16,0h11.63v37.96c0,2.08-1.69,3.77-3.77,3.77h-7.86V0h0Z"/>
  <path class="cls-1" d="M114.82,0h11.63v37.96c0,2.08-1.69,3.77-3.77,3.77h-7.86V0h0Z"/>
</svg>