<?xml version="1.0" encoding="UTF-8"?>
<svg id="Layer_1" data-name="Layer 1" xmlns="http://www.w3.org/2000/svg" viewBox="0 0 142.56 157.22">
  <defs>
    <style>
      .cls-1 {
        stroke-width: 0px;
      }
    </style>
  </defs>
  <path class="cls-1" d="M122.12,68.92c0,1.45-.09,2.9.04,4.35.06.64-.44.94-3.41.94-11.93-.04-23.86-.03-35.79,0-2.25,0-3.07-.17-3.05-.75.09-3.03.09-6.06,0-9.1-.02-.6.99-.73,3.14-.73,11.93.02,23.86.02,35.79,0,2.48,0,3.39.18,3.32.82-.15,1.49-.05,2.99-.05,4.48Z"/>
  <g>
    <polygon class="cls-1" points="29.01 41.73 40.65 41.73 40.65 26.64 59.75 26.64 59.75 18.45 40.65 18.45 40.65 0 29.01 0 29.01 18.45 28.99 18.45 28.99 26.64 29.01 26.64 29.01 41.73"/>
    <polygon class="cls-1" points="77.1 26.64 96.1 26.64 96.1 18.45 77.1 18.45 77.1 0 65.46 0 65.46 41.73 77.1 41.73 77.1 26.64"/>
    <path class="cls-1" d="M132.53,18.45h-19.08V0h-11.63v41.73h11.63v-15.09h19.05c1.04,0,1.85.83,1.85,1.85v80.06h-31.33c-3.48,0-6.32,2.83-6.32,6.32v34.17H10.06c-1.01,0-1.85-.83-1.85-1.85V28.49c0-1.01.81-1.85,1.85-1.85h13.23v-8.19h-13.23c-5.54,0-10.06,4.52-10.06,10.06v118.64c0,5.54,4.52,10.06,10.06,10.06h85.99c2.63,0,5.1-1.12,6.84-3.07l.91-1.01,3.64-4.11,26.91-30.19,4.11-4.6,1.85-2.08c1.46-1.61,2.26-3.72,2.26-5.9V28.49c0-5.54-4.5-10.04-10.04-10.04Z"/>
  </g>
  <g>
    <path class="cls-1" d="M33.55,90.27c1.87,1.76,4.23,2.68,7.21,2.79h.04s.04,0,.04,0c3.69-.12,6.61-1.64,8.69-4.52,3.09-4.27,6.15-8.56,9.21-12.85l4.82-6.74c1.55-2.17,3.11-4.33,4.65-6.51,1.17-1.65,1.26-3.51.26-5.24-.92-1.59-2.36-2.43-4.17-2.43h-.38c-1.53.11-2.8.89-3.87,2.41-4.74,6.64-9.48,13.27-14.23,19.9l-3.77,5.26c-.33.47-.82,1.02-1.24,1.02-.23,0-.64-.14-1.34-.81l-3.49-3.36c-2.68-2.58-5.36-5.16-8.05-7.73-.99-.94-2.24-1.46-3.51-1.46s-2.49.52-3.42,1.47c-.92.95-1.42,2.17-1.41,3.45.02,1.27.55,2.48,1.5,3.41,4.12,4.01,8.27,7.99,12.46,11.94Z"/>
    <path class="cls-1" d="M64.29,91.18h-.38c-1.53.11-2.8.89-3.87,2.41-4.74,6.64-9.48,13.27-14.23,19.9l-3.77,5.26c-.33.47-.82,1.02-1.24,1.02-.23,0-.64-.14-1.34-.81l-3.49-3.36c-2.68-2.58-5.36-5.16-8.05-7.73-.99-.94-2.24-1.46-3.51-1.46s-2.49.52-3.42,1.47c-.92.95-1.42,2.17-1.41,3.45.02,1.27.55,2.48,1.5,3.41,4.12,4.01,8.27,7.99,12.46,11.94,1.87,1.76,4.23,2.68,7.21,2.79h.04s.04,0,.04,0c3.69-.12,6.61-1.64,8.69-4.52,3.09-4.27,6.15-8.56,9.21-12.85l4.82-6.74c1.55-2.17,3.11-4.33,4.65-6.51,1.17-1.65,1.26-3.51.26-5.24-.92-1.59-2.36-2.43-4.17-2.43Z"/>
  </g>
</svg>