<?xml version="1.0" encoding="UTF-8"?>
<svg id="Layer_1" data-name="Layer 1" xmlns="http://www.w3.org/2000/svg" viewBox="0 0 109.05 156.18">
  <defs>
    <style>
      .cls-1 {
        stroke-width: 0px;
      }
    </style>
  </defs>
  <path class="cls-1" d="M109.05,55.45v91.16c0,5.28-4.29,9.57-9.57,9.57H9.57c-5.28,0-9.57-4.29-9.57-9.57V55.45c0-5.28,4.29-9.57,9.57-9.57h27.17v29.36c0,9.44,7.67,17.11,17.11,17.11h4.71c9.44,0,17.11-7.67,17.11-17.11v-29.36h23.82c5.28,0,9.57,4.29,9.57,9.57Z"/>
  <polygon class="cls-1" points="56.12 33.01 28.02 33.01 42.07 16.5 56.12 0 70.17 16.5 84.22 33.01 56.12 33.01"/>
  <rect class="cls-1" x="49.83" y="31.71" width="13.02" height="46.51"/>
</svg>