<?xml version="1.0" encoding="UTF-8"?>
<svg id="Layer_1" data-name="Layer 1" xmlns="http://www.w3.org/2000/svg" viewBox="0 0 254.27 254.27">
  <defs>
    <style>
      .cls-1, .cls-2 {
        stroke-width: 0px;
      }

      .cls-2 {
        fill: #231f20;
        opacity: .11;
      }
    </style>
  </defs>
  <circle class="cls-2" cx="127.14" cy="127.14" r="127.14"/>
  <g>
    <path class="cls-1" d="M191.78,162.74c-.46,1.03-.46,2.21-1.14,3.17-.46-.13-.72-.55-1.04-.87-12.39-12.3-24.76-24.61-37.17-36.89-.82-.81-.82-1.22,0-2.03,12.41-12.28,24.79-24.59,37.17-36.89.32-.32.66-.63,1-.95.72,1.04.74,2.22,1.19,3.25v71.21Z"/>
    <path class="cls-1" d="M185.19,82.84c-.33.36-.61.67-.9.96-16.2,16.12-32.39,32.23-48.59,48.35-3.49,3.48-7.55,4.72-12.33,3.17-1.8-.58-3.29-1.68-4.61-2.99-16.35-16.26-32.7-32.53-49.04-48.79-.2-.2-.39-.43-.63-.7,1.35-.72,2.72-1.01,4.14-1.12.46-.04.93-.03,1.39-.03,35.01,0,70.02,0,105.03,0,1.91,0,3.74.23,5.55,1.16Z"/>
    <path class="cls-1" d="M185.14,171.47c-1.78.89-3.63,1.12-5.55,1.12-28.99-.01-57.98,0-86.96,0-6.1,0-12.2,0-18.3,0-1.79,0-3.51-.3-5.14-1.09.06-.48.46-.69.74-.97,12.44-12.37,24.9-24.73,37.31-37.12.83-.83,1.22-.7,1.95.04,2.1,2.12,4.06,4.4,6.45,6.21,7.73,5.85,17.96,5.1,25.07-1.81,1.54-1.49,3.08-2.99,4.54-4.57.67-.72,1.03-.62,1.68.02,9.95,9.92,19.93,19.82,29.89,29.73,2.77,2.76,5.49,5.56,8.32,8.43Z"/>
    <path class="cls-1" d="M63.63,166.02c-.79-1.63-1.14-3.22-1.14-4.88,0-22.68,0-45.36,0-68.05,0-1.66.37-3.24,1.09-4.74.48.13.71.5,1.01.79,12.45,12.36,24.9,24.74,37.36,37.09.66.65.81,1.01.06,1.76-12.53,12.4-25.03,24.84-37.54,37.26-.23.23-.49.45-.83.76Z"/>
  </g>
</svg>