<?xml version="1.0" encoding="UTF-8"?>
<svg id="Layer_1" data-name="Layer 1" xmlns="http://www.w3.org/2000/svg" viewBox="0 0 195.01 194.9">
  <defs>
    <style>
      .cls-1 {
        stroke-width: 0px;
      }
    </style>
  </defs>
  <path class="cls-1" d="M183.58,194.9c-2.92-.79-5.07-2.67-7.16-4.77-16.12-16.19-32.3-32.31-48.42-48.5-1.04-1.05-1.64-1.19-2.91-.26-44.38,32.66-107.23,11.02-122.21-42.04C-8.63,58.51,15.33,15.15,55.92,3.29c40.86-11.93,82.94,9.44,96.64,49.71,8.67,25.47,4.73,49.52-10.81,71.55-1.11,1.57-1.02,2.33.31,3.66,15.89,15.79,31.7,31.66,47.57,47.47,2.21,2.2,4.34,4.4,5.37,7.42v3.81c-1.19,4.14-3.87,6.79-8,8h-3.43ZM19.47,78.22c-.12,32.4,26.3,58.94,58.85,59.12,32.41.18,59.01-26.27,59.14-58.81.13-32.46-26.29-59.01-58.82-59.12-32.43-.11-59.05,26.35-59.17,58.8Z"/>
</svg>