<?xml version="1.0" encoding="UTF-8"?>
<svg id="Layer_1" data-name="Layer 1" xmlns="http://www.w3.org/2000/svg" viewBox="0 0 173.28 157.22">
  <defs>
    <style>
      .cls-1 {
        stroke-width: 0px;
      }
    </style>
  </defs>
  <path class="cls-1" d="M130.68,70.94c-.96-.96-2.06-1.64-3.11-2.24l-13.02-7.41c-11.96-6.81-23.92-13.62-35.89-20.4-.68-.39-1.35-.8-2.03-1.21-2.26-1.38-4.6-2.8-7.4-3.44l-.17-.04h-2.25l-.42.07-.26.1c-3.1.64-5.29,2.51-6.51,5.56-.66,1.64-.73,3.3-.73,4.41v64.46c0,.84.05,1.67.16,2.5.53,4.12,3.42,7.12,7.37,7.65.38.05.76.08,1.14.08,1.86,0,3.69-.59,5.77-1.87l54.58-33.41c.81-.49,1.85-1.18,2.77-2.09,3.68-3.69,3.69-9.03.01-12.72ZM122.05,77.33c-12.12,7.43-51.77,31.7-52.92,32.4,0-8.61,0-62.53,0-62.53l4.84,2.75c15.99,9.1,31.98,18.2,48.09,27.38Z"/>
  <path class="cls-1" d="M137.53,157.22H35.75c-19.71,0-35.75-16.04-35.75-35.75V35.75C0,16.04,16.04,0,35.75,0h101.78c19.71,0,35.75,16.04,35.75,35.75v85.72c0,19.71-16.04,35.75-35.75,35.75ZM35.75,10.4c-13.98,0-25.35,11.37-25.35,25.35v85.72c0,13.98,11.37,25.35,25.35,25.35h101.78c13.98,0,25.35-11.37,25.35-25.35V35.75c0-13.98-11.37-25.35-25.35-25.35H35.75Z"/>
</svg>