<?xml version="1.0" encoding="UTF-8"?>
<svg id="Layer_1" data-name="Layer 1" xmlns="http://www.w3.org/2000/svg" viewBox="0 0 178.53 157.13">
  <defs>
    <style>
      .cls-1 {
        stroke-width: 0px;
      }
    </style>
  </defs>
  <path class="cls-1" d="M178.53,68.48v9.41c-.1.45-.26.89-.3,1.34-.64,7.77-2.59,15.2-5.88,22.25-8.53,18.24-22.72,30.46-41.21,37.7-22.76,8.91-46.15,9.48-69.8,4.05-1.22-.28-2-.11-2.92.76-6.07,5.83-13.2,9.77-21.38,11.81-7.55,1.88-15.23,1.22-22.87,1.22-.07,0-.13-.15-.3-.35,2.86-2.85,5.74-5.69,8.6-8.57,4.33-4.37,6.98-9.63,8.26-15.62.33-1.52.02-2.43-1.39-3.4-10.71-7.34-19.24-16.65-24.28-28.73C-3.5,79.82-.86,60.05,10.36,41.37,22.15,21.74,39.91,9.84,61.7,3.71,76.86-.56,92.3-.84,107.8,1.32c14.86,2.07,28.76,6.83,41.05,15.65,15,10.77,24.75,25.06,28.39,43.3.54,2.71.87,5.47,1.3,8.21Z"/>
</svg>