<?xml version="1.0" encoding="UTF-8"?>
<svg id="Layer_1" data-name="Layer 1" xmlns="http://www.w3.org/2000/svg" viewBox="0 0 156.15 157.22">
  <defs>
    <style>
      .cls-1 {
        stroke-width: 0px;
      }
    </style>
  </defs>
  <path class="cls-1" d="M156.13,144.03l-5.91-106.04c-.36-6.46-5.71-11.53-12.19-11.53h-14.81v-7.47c0-10.47-8.52-18.99-18.99-18.99h-19.68c-10.47,0-18.99,8.52-18.99,18.99v6.64h-19.35v-6.64c0-4.35,3.54-7.89,7.89-7.89h1.94c3.07,0,5.55-2.49,5.55-5.55s-2.49-5.55-5.55-5.55h-1.94c-10.47,0-18.99,8.52-18.99,18.99v7.47h-13.88c-6.2,0-11.3,4.66-11.85,10.84L.06,141.86c-.35,3.94.98,7.86,3.64,10.78s6.46,4.59,10.41,4.59h129.54c3.42,0,6.73-1.43,9.08-3.91,2.35-2.48,3.59-5.87,3.4-9.28ZM76.67,18.99c0-4.35,3.54-7.89,7.89-7.89h19.68c4.35,0,7.89,3.54,7.89,7.89v6.64h-35.46v-6.64ZM12.49,144.59c-.24-.27-.64-.84-.57-1.68l9.3-104.53h22.58c.72.68,1.45,1.65,1.68,2.97l5.6,101.37s0,1.39-.85,2.58H14.11c-.84,0-1.38-.45-1.62-.71Z"/>
</svg>