<?xml version="1.0" encoding="UTF-8"?>
<svg id="Layer_1" data-name="Layer 1" xmlns="http://www.w3.org/2000/svg" viewBox="0 0 176.73 157.22">
  <defs>
    <style>
      .cls-1 {
        stroke-width: 0px;
      }
    </style>
  </defs>
  <path class="cls-1" d="M138.18,51.01c-5.49-1.3-11.23-1.95-17.16-1.95-4.11,0-8.4.31-12.79.94-11.57,1.61-21.71,5.49-30.19,11.57-11.73,8.42-19.06,19.66-21.79,33.36-.26,1.35-.47,2.73-.68,4.08l-.34,2.26v7.83s.29,1.22.29,1.25c.08.78.16,1.53.29,2.31-2.73-.39-5.49-.94-8.24-1.56-.94-.21-1.53-.08-2.26.6-4.71,4.52-10.22,7.59-16.56,9.15-5.85,1.46-11.83.96-17.76.96-.05,0-.1-.13-.23-.29,2.24-2.21,4.47-4.42,6.68-6.66,3.35-3.38,5.41-7.46,6.4-12.12.26-1.17.03-1.87-1.07-2.63-8.32-5.69-14.92-12.9-18.82-22.28-6.66-15.91-4.6-31.25,4.11-45.74C17.17,16.87,30.95,7.64,47.85,2.88c11.78-3.3,23.74-3.54,35.75-1.85,11.54,1.61,22.31,5.3,31.85,12.14,11.62,8.35,19.19,19.42,22.02,33.59.29,1.38.49,2.81.7,4.24Z"/>
  <path class="cls-1" d="M65.65,102.06c0,1.95,0,3.9,0,5.85.06.28.16.55.19.83.4,4.83,1.61,9.45,3.66,13.84,5.31,11.35,14.13,18.95,25.64,23.45,14.16,5.54,28.71,5.9,43.43,2.52.76-.17,1.25-.07,1.81.47,3.77,3.63,8.21,6.08,13.3,7.35,4.7,1.17,9.47.76,14.23.76.04,0,.08-.09.19-.22-1.78-1.77-3.57-3.54-5.35-5.33-2.7-2.72-4.34-5.99-5.14-9.72-.2-.95,0-1.51.87-2.11,6.66-4.57,11.97-10.36,15.1-17.87,5.33-12.77,3.68-25.08-3.29-36.7-7.33-12.21-18.39-19.62-31.94-23.43-9.43-2.65-19.04-2.83-28.68-1.48-9.24,1.29-17.9,4.25-25.54,9.74-9.33,6.7-15.4,15.59-17.66,26.94-.34,1.69-.54,3.4-.81,5.11Z"/>
</svg>