<?xml version="1.0" encoding="UTF-8"?>
<svg id="Layer_1" data-name="Layer 1" xmlns="http://www.w3.org/2000/svg" viewBox="0 0 155.28 157.23">
  <defs>
    <style>
      .cls-1 {
        stroke-width: 0px;
      }
    </style>
  </defs>
  <path class="cls-1" d="M110.23,80.33v-25.32c0-1.62,1.78-2.61,3.16-1.76l20.3,12.56,20.61,12.76c1.31.81,1.31,2.71,0,3.52l-20.61,12.76-20.3,12.56c-1.38.85-3.16-.14-3.16-1.76v-25.32Z"/>
  <path class="cls-1" d="M6.27,12.12l-6.27,1.33v130.32l7.72,1.64,55.69,11.83V0L6.27,12.12ZM35.15,93.11c-4.19,0-7.57-5.02-7.57-11.23s3.38-11.23,7.57-11.23,7.57,5.02,7.57,11.23-3.41,11.23-7.57,11.23Z"/>
  <path class="cls-1" d="M108.53,136.61H0v7.15l7.72,1.64h101.61c4.39,0,7.96-3.59,7.96-7.96v-19.34h-8.76v18.51ZM109.33,12.12H6.27l-6.27,1.33v7.46h108.53v18.2h8.76v-19.01c0-4.39-3.56-7.98-7.96-7.98Z"/>
  <rect class="cls-1" x="78.52" y="70.52" width="38.78" height="19.63"/>
</svg>