<?xml version="1.0" encoding="UTF-8"?>
<svg id="Layer_1" data-name="Layer 1" xmlns="http://www.w3.org/2000/svg" viewBox="0 0 249.68 218.03">
  <defs>
    <style>
      .cls-1 {
        stroke-width: 0px;
      }
    </style>
  </defs>
  <path class="cls-1" d="M249.68,124.88c0,37.01-16.1,70.29-41.68,93.15-3.11-24.42-15.08-44.01-35.92-58.86-6.53-4.59-13.76-7.93-21.46-10.57,32.27-18.35,35.38-60.49,12.29-83.98-21.93-22.32-57.62-21.38-78.3,2.33-21.15,24.18-16.41,63.45,14.54,81.57-.78.31-1.24.54-1.71.7-30.87,10.96-51.71,37.01-55.75,68.74C16.1,195.17,0,161.89,0,124.88,0,55.91,55.83,0,124.8,0s124.88,55.91,124.88,124.88Z"/>
</svg>