<?xml version="1.0" encoding="UTF-8"?>
<svg xmlns="http://www.w3.org/2000/svg" viewBox="0 0 303.82 46.58">
  <defs>
    <style>
      .cls-1 {
        mix-blend-mode: multiply;
        opacity: .5;
      }

      .cls-1, .cls-2 {
        fill: #ffc83d;
        stroke-width: 0px;
      }

      .cls-3 {
        isolation: isolate;
      }
    </style>
  </defs>
  <g class="cls-3">
    <g id="Layer_1" data-name="Layer 1">
      <g>
        <g>
          <path class="cls-2" d="M39.76,44.86c.21,1.47-.7,2.12-2.03,1.46l-11.02-5.55c-1.33-.67-3.5-.68-4.83-.02l-11.07,5.46c-1.33.66-2.24,0-2.01-1.48l1.87-12.19c.23-1.47-.44-3.54-1.47-4.6L.6,19.08c-1.04-1.07-.69-2.13.78-2.37l12.18-1.99c1.47-.24,3.23-1.51,3.92-2.82L23.23.98c.69-1.31,1.81-1.31,2.49.01l5.65,10.97c.68,1.32,2.43,2.61,3.9,2.86l12.16,2.09c1.46.25,1.8,1.32.76,2.37l-8.69,8.77c-1.04,1.05-1.73,3.12-1.51,4.59l1.77,12.21Z"/>
          <path class="cls-1" d="M24.47.6c.23,0,.49.25.71.67l5.65,10.97c.77,1.49,2.67,2.89,4.33,3.17l12.16,2.09c.46.07.78.26.85.47.07.22-.08.54-.41.88l-8.68,8.77c-1.18,1.19-1.92,3.44-1.68,5.1l1.77,12.21c.06.41,0,.73-.13.9-.03.03-.11.13-.34.13-.19,0-.43-.07-.69-.2l-11.02-5.55c-.73-.37-1.7-.57-2.72-.57s-1.94.19-2.66.54l-11.07,5.46c-.25.13-.49.19-.68.19-.23,0-.32-.09-.34-.13-.14-.17-.19-.5-.12-.9l1.88-12.2c.25-1.66-.46-3.91-1.64-5.11L1.03,18.66c-.33-.33-.48-.66-.41-.88.07-.22.39-.4.85-.47l12.18-1.98c1.66-.27,3.57-1.65,4.36-3.14L23.76,1.27c.22-.41.48-.66.71-.66M24.47,0c-.45,0-.9.32-1.25.98l-5.75,10.92c-.69,1.31-2.46,2.58-3.92,2.82l-12.18,1.99c-1.47.24-1.82,1.3-.78,2.37l8.61,8.84c1.04,1.07,1.7,3.14,1.47,4.6l-1.87,12.19c-.17,1.08.28,1.73,1.06,1.73.28,0,.6-.08.95-.25l11.07-5.46c.66-.32,1.52-.49,2.39-.49s1.77.17,2.44.51l11.02,5.55c.35.18.68.26.96.26.77,0,1.22-.64,1.07-1.72l-1.77-12.21c-.21-1.47.47-3.53,1.51-4.59l8.69-8.77c1.04-1.05.7-2.12-.76-2.37l-12.16-2.09c-1.46-.25-3.22-1.54-3.9-2.86L25.72.99C25.38.33,24.93,0,24.47,0h0Z"/>
        </g>
        <g>
          <path class="cls-2" d="M103.52,44.86c.21,1.47-.7,2.12-2.03,1.46l-11.02-5.55c-1.33-.67-3.5-.68-4.83-.02l-11.07,5.46c-1.33.66-2.24,0-2.01-1.48l1.88-12.19c.23-1.47-.44-3.54-1.47-4.6l-8.61-8.84c-1.04-1.07-.68-2.13.78-2.37l12.18-1.99c1.46-.24,3.23-1.51,3.92-2.82l5.75-10.92c.69-1.31,1.81-1.31,2.5.01l5.65,10.97c.68,1.32,2.43,2.61,3.9,2.86l12.16,2.09c1.47.25,1.8,1.32.76,2.37l-8.69,8.77c-1.04,1.05-1.73,3.12-1.51,4.59l1.77,12.21Z"/>
          <path class="cls-1" d="M88.23.6c.23,0,.49.25.71.67l5.65,10.97c.77,1.49,2.68,2.89,4.33,3.17l12.16,2.09c.46.07.78.26.85.47.07.22-.08.54-.41.88l-8.69,8.77c-1.18,1.19-1.92,3.44-1.68,5.1l1.77,12.21c.06.41,0,.73-.13.9-.03.03-.11.13-.34.13-.19,0-.43-.07-.68-.2l-11.02-5.55c-.73-.37-1.7-.57-2.72-.57s-1.94.19-2.66.54l-11.07,5.46c-.25.13-.49.19-.68.19-.23,0-.32-.09-.35-.13-.14-.17-.19-.5-.12-.9l1.88-12.2c.25-1.66-.47-3.91-1.64-5.11l-8.61-8.85c-.33-.33-.48-.66-.41-.88.07-.22.39-.4.85-.47l12.18-1.98c1.66-.27,3.57-1.65,4.36-3.14l5.75-10.92c.22-.41.48-.66.71-.66M88.23,0c-.45,0-.9.32-1.25.98l-5.75,10.92c-.69,1.31-2.46,2.58-3.92,2.82l-12.18,1.99c-1.46.24-1.82,1.3-.78,2.37l8.61,8.84c1.04,1.07,1.7,3.14,1.47,4.6l-1.88,12.19c-.17,1.08.28,1.73,1.07,1.73.28,0,.6-.08.95-.25l11.07-5.46c.66-.32,1.52-.49,2.39-.49s1.77.17,2.44.51l11.02,5.55c.35.18.68.26.96.26.78,0,1.22-.64,1.07-1.72l-1.77-12.21c-.21-1.47.47-3.53,1.51-4.59l8.69-8.77c1.04-1.05.7-2.12-.76-2.37l-12.16-2.09c-1.46-.25-3.21-1.54-3.9-2.86l-5.65-10.97c-.34-.66-.79-.99-1.25-.99h0Z"/>
        </g>
        <g>
          <path class="cls-2" d="M167.27,44.86c.21,1.47-.7,2.12-2.03,1.46l-11.02-5.55c-1.33-.67-3.5-.68-4.83-.02l-11.07,5.46c-1.33.66-2.24,0-2.01-1.48l1.88-12.19c.22-1.47-.44-3.54-1.48-4.6l-8.61-8.84c-1.03-1.07-.68-2.13.78-2.37l12.18-1.99c1.47-.24,3.23-1.51,3.92-2.82l5.75-10.92c.69-1.31,1.81-1.31,2.49.01l5.65,10.97c.68,1.32,2.43,2.61,3.9,2.86l12.16,2.09c1.46.25,1.8,1.32.76,2.37l-8.69,8.77c-1.04,1.05-1.73,3.12-1.51,4.59l1.77,12.21Z"/>
          <path class="cls-1" d="M151.98.6c.23,0,.5.25.71.67l5.65,10.97c.77,1.49,2.67,2.89,4.33,3.17l12.16,2.09c.46.07.78.26.85.47.07.22-.08.54-.41.88l-8.69,8.77c-1.18,1.19-1.92,3.44-1.68,5.1l1.77,12.21c.06.41.01.73-.13.9-.03.03-.11.13-.34.13-.19,0-.43-.07-.68-.2l-11.02-5.55c-.73-.37-1.7-.57-2.72-.57s-1.94.19-2.66.54l-11.07,5.46c-.25.13-.49.19-.68.19-.23,0-.32-.09-.35-.13-.14-.17-.19-.5-.12-.9l1.88-12.2c.26-1.66-.47-3.91-1.64-5.11l-8.61-8.85c-.33-.33-.48-.66-.41-.88.07-.22.39-.4.85-.47l12.18-1.98c1.66-.27,3.58-1.65,4.36-3.14l5.75-10.92c.22-.41.48-.66.71-.66M151.98,0c-.45,0-.9.32-1.25.98l-5.75,10.92c-.69,1.31-2.46,2.58-3.92,2.82l-12.18,1.99c-1.46.24-1.81,1.3-.78,2.37l8.61,8.84c1.04,1.07,1.7,3.14,1.48,4.6l-1.88,12.19c-.17,1.08.28,1.73,1.07,1.73.28,0,.6-.08.95-.25l11.07-5.46c.66-.32,1.52-.49,2.39-.49s1.77.17,2.44.51l11.02,5.55c.36.18.68.26.96.26.78,0,1.22-.64,1.07-1.72l-1.77-12.21c-.21-1.47.47-3.53,1.51-4.59l8.69-8.77c1.04-1.05.7-2.12-.76-2.37l-12.16-2.09c-1.46-.25-3.21-1.54-3.9-2.86l-5.65-10.97c-.34-.66-.79-.99-1.25-.99h0Z"/>
        </g>
        <g>
          <path class="cls-2" d="M231.03,44.86c.21,1.47-.7,2.12-2.02,1.46l-11.02-5.55c-1.33-.67-3.5-.68-4.83-.02l-11.07,5.46c-1.33.66-2.24,0-2.01-1.48l1.88-12.19c.23-1.47-.44-3.54-1.47-4.6l-8.61-8.84c-1.04-1.07-.69-2.13.78-2.37l12.18-1.99c1.47-.24,3.23-1.51,3.92-2.82l5.75-10.92c.69-1.31,1.81-1.31,2.49.01l5.65,10.97c.68,1.32,2.43,2.61,3.9,2.86l12.16,2.09c1.47.25,1.8,1.32.76,2.37l-8.69,8.77c-1.04,1.05-1.72,3.12-1.51,4.59l1.77,12.21Z"/>
          <path class="cls-1" d="M215.74.6c.23,0,.49.25.71.67l5.65,10.97c.77,1.49,2.68,2.89,4.33,3.17l12.16,2.09c.46.07.78.26.85.47.07.22-.08.54-.41.88l-8.68,8.77c-1.18,1.19-1.92,3.44-1.68,5.1l1.77,12.21c.06.41,0,.73-.13.9-.03.03-.11.13-.34.13-.19,0-.43-.07-.68-.2l-11.02-5.55c-.73-.37-1.7-.57-2.72-.57s-1.94.19-2.66.54l-11.07,5.46c-.25.13-.49.19-.68.19-.23,0-.32-.09-.35-.13-.14-.17-.19-.5-.12-.9l1.88-12.2c.26-1.66-.46-3.91-1.64-5.11l-8.61-8.85c-.33-.33-.48-.66-.41-.88.07-.22.39-.4.85-.47l12.18-1.98c1.66-.27,3.57-1.65,4.36-3.14l5.75-10.92c.22-.41.48-.66.71-.66M215.74,0c-.45,0-.9.32-1.25.98l-5.75,10.92c-.69,1.31-2.45,2.58-3.92,2.82l-12.18,1.99c-1.47.24-1.82,1.3-.78,2.37l8.61,8.84c1.03,1.07,1.7,3.14,1.47,4.6l-1.88,12.19c-.17,1.08.28,1.73,1.07,1.73.28,0,.6-.08.94-.25l11.07-5.46c.66-.32,1.52-.49,2.39-.49s1.77.17,2.44.51l11.02,5.55c.35.18.68.26.96.26.77,0,1.22-.64,1.07-1.72l-1.77-12.21c-.21-1.47.47-3.53,1.51-4.59l8.69-8.77c1.04-1.05.7-2.12-.76-2.37l-12.16-2.09c-1.46-.25-3.22-1.54-3.9-2.86l-5.65-10.97c-.34-.66-.79-.99-1.25-.99h0Z"/>
        </g>
        <g>
          <path class="cls-2" d="M294.78,44.86c.21,1.47-.7,2.12-2.02,1.46l-11.02-5.55c-1.33-.67-3.5-.68-4.83-.02l-11.07,5.46c-1.33.66-2.24,0-2.01-1.48l1.88-12.19c.22-1.47-.44-3.54-1.47-4.6l-8.61-8.84c-1.04-1.07-.68-2.13.78-2.37l12.18-1.99c1.47-.24,3.23-1.51,3.92-2.82l5.75-10.92c.69-1.31,1.81-1.31,2.5.01l5.65,10.97c.68,1.32,2.43,2.61,3.9,2.86l12.16,2.09c1.47.25,1.81,1.32.76,2.37l-8.68,8.77c-1.05,1.05-1.73,3.12-1.52,4.59l1.77,12.21Z"/>
          <path class="cls-1" d="M279.49.6c.23,0,.5.25.71.67l5.66,10.97c.77,1.49,2.67,2.89,4.33,3.17l12.16,2.09c.46.07.78.26.85.47s-.08.54-.41.88l-8.69,8.77c-1.18,1.19-1.92,3.44-1.68,5.1l1.77,12.21c.06.41.01.73-.13.9-.03.03-.11.13-.34.13-.19,0-.43-.07-.68-.2l-11.02-5.55c-.73-.37-1.69-.57-2.71-.57s-1.94.19-2.66.54l-11.07,5.46c-.25.13-.49.19-.68.19-.23,0-.32-.09-.34-.13-.14-.17-.19-.5-.12-.9l1.87-12.2c.25-1.66-.46-3.91-1.64-5.11l-8.61-8.85c-.33-.33-.48-.66-.4-.88.07-.22.39-.4.85-.47l12.18-1.98c1.66-.27,3.57-1.65,4.36-3.14l5.75-10.92c.22-.41.49-.66.71-.66M279.49,0c-.45,0-.9.32-1.25.98l-5.75,10.92c-.69,1.31-2.45,2.58-3.92,2.82l-12.18,1.99c-1.46.24-1.82,1.3-.78,2.37l8.61,8.84c1.04,1.07,1.7,3.14,1.47,4.6l-1.88,12.19c-.17,1.08.28,1.73,1.07,1.73.28,0,.6-.08.95-.25l11.07-5.46c.66-.32,1.52-.49,2.39-.49s1.77.17,2.44.51l11.02,5.55c.35.18.67.26.96.26.77,0,1.22-.64,1.07-1.72l-1.77-12.21c-.21-1.47.47-3.53,1.52-4.59l8.68-8.77c1.04-1.05.7-2.12-.76-2.37l-12.16-2.09c-1.46-.25-3.21-1.54-3.9-2.86l-5.65-10.97c-.34-.66-.79-.99-1.25-.99h0Z"/>
        </g>
      </g>
    </g>
  </g>
</svg>